<?xml version="1.0" standalone="no"?>
<!DOCTYPE svg PUBLIC "-//W3C//DTD SVG 20010904//EN"
 "http://www.w3.org/TR/2001/REC-SVG-20010904/DTD/svg10.dtd">
<svg version="1.0" xmlns="http://www.w3.org/2000/svg"
 width="500.000000pt" height="500.000000pt" viewBox="0 0 500.000000 500.000000"
 preserveAspectRatio="xMidYMid meet">

<g transform="translate(0.000000,500.000000) scale(0.100000,-0.100000)"
fill="#000000" stroke="none">
<path d="M2392 4985 c-111 -24 -182 -83 -170 -142 6 -31 33 -25 94 20 101 77
181 111 222 96 38 -14 28 -50 -23 -83 -46 -28 -75 -69 -75 -104 0 -10 20 -37
45 -60 47 -42 60 -82 27 -82 -10 0 -60 10 -112 21 -185 42 -327 26 -385 -42
-48 -58 -24 -143 54 -196 50 -34 158 -33 197 1 l28 23 -27 32 c-37 44 -35 75
8 118 35 35 37 36 99 31 49 -4 94 -19 192 -62 190 -85 279 -101 382 -71 61 19
132 79 114 97 -9 9 -27 9 -75 -2 -92 -21 -177 -20 -191 4 -9 15 -4 24 39 60
148 124 158 145 102 218 -84 110 -339 167 -545 123z"/>
<path d="M2122 4197 c-51 -52 -92 -99 -92 -105 0 -12 8 -18 109 -85 75 -49 91
-69 75 -94 -18 -28 -28 -25 -95 28 -76 62 -114 79 -172 79 -93 0 -183 -71
-223 -176 -23 -59 -16 -183 14 -240 33 -64 133 -193 205 -266 60 -59 67 -70
67 -106 0 -77 -60 -114 -220 -136 -191 -27 -210 -53 -210 -279 l0 -147 -44 0
c-60 0 -179 -24 -245 -49 -107 -40 -156 -93 -149 -161 2 -29 7 -35 29 -38 28
-3 59 27 141 138 44 58 76 70 131 48 238 -93 230 -90 288 -85 69 6 128 35 167
83 16 19 53 81 82 136 29 56 69 119 89 141 43 48 122 87 176 87 85 0 225 -54
291 -113 19 -16 36 -28 38 -26 2 2 22 47 45 100 23 52 54 111 70 129 24 29 33
33 74 33 41 0 47 3 57 27 15 37 59 78 117 109 83 46 81 69 -8 118 -79 42 -76
80 9 126 62 34 104 34 177 1 88 -40 118 -44 218 -28 148 24 194 58 167 124
-25 61 -94 107 -213 145 -60 19 -116 40 -123 46 -25 21 -15 47 36 90 66 56 65
75 -4 128 -30 22 -57 50 -61 61 -5 16 -15 20 -56 20 -27 0 -49 -4 -49 -9 0 -6
18 -31 40 -56 42 -49 51 -82 24 -92 -10 -3 -49 -2 -88 4 -116 16 -128 -4 -39
-64 68 -45 87 -78 87 -155 1 -68 -15 -89 -68 -91 -32 -1 -45 7 -99 59 -96 94
-168 147 -310 231 -199 118 -305 226 -347 355 l-16 49 -92 -94z"/>
<path d="M2494 4105 c-18 -15 -15 -19 66 -95 46 -44 90 -80 96 -80 15 0 24 23
24 61 0 34 8 36 43 9 50 -39 83 -16 72 50 -11 66 -20 70 -159 70 -94 0 -127
-3 -142 -15z"/>
<path d="M3232 3343 c-39 -19 -50 -54 -28 -88 35 -53 24 -76 -87 -187 -109
-110 -249 -278 -521 -627 -210 -269 -759 -1001 -755 -1005 2 -2 14 -6 25 -10
19 -6 43 18 166 166 79 95 391 463 692 818 301 355 565 667 588 693 23 28 59
57 83 67 24 10 46 24 50 31 11 17 8 75 -5 100 -30 55 -138 77 -208 42z"/>
<path d="M1116 1549 c-58 -55 -122 -124 -143 -152 -20 -29 -63 -80 -95 -115
l-58 -63 0 -86 c0 -78 -3 -90 -31 -135 -78 -129 -87 -202 -34 -280 28 -40 35
-60 33 -87 -3 -35 -4 -36 -43 -36 -36 0 -42 4 -60 37 -11 21 -23 38 -27 38 -9
0 -97 -116 -110 -146 -10 -20 -8 -29 8 -51 30 -40 111 -92 155 -99 30 -5 51
-20 101 -72 72 -75 68 -74 311 -88 124 -7 127 -6 127 14 0 15 -21 33 -77 67
-129 78 -188 129 -239 207 -32 50 -30 86 7 161 67 133 122 201 323 402 138
137 207 213 220 243 25 56 12 66 -27 21 -20 -22 -67 -53 -122 -79 l-90 -44
-113 3 c-112 2 -113 2 -142 -27 -17 -18 -31 -44 -35 -68 -3 -21 -14 -64 -23
-94 -13 -43 -21 -55 -37 -55 -19 0 -20 8 -23 117 l-3 118 54 52 c30 29 98 93
151 142 52 48 114 115 136 148 41 61 52 108 26 108 -8 0 -62 -45 -120 -101z"/>
<path d="M2728 1334 c-20 -19 -6 -34 30 -34 88 0 142 -79 191 -278 28 -115 78
-235 122 -291 11 -14 93 -99 182 -188 177 -180 181 -182 258 -142 23 11 47 18
54 15 22 -8 28 -63 11 -97 -33 -65 -24 -89 72 -197 102 -116 117 -127 167
-118 40 8 108 63 131 108 12 23 21 28 52 28 83 0 223 29 286 58 111 52 197
149 166 187 -20 25 -90 18 -212 -21 -82 -26 -138 -38 -204 -41 -104 -6 -150 5
-207 49 -40 31 -41 31 -100 -15 -46 -36 -79 -31 -97 14 -19 44 7 95 52 107 43
11 50 44 14 67 -33 22 -77 15 -167 -27 -82 -37 -113 -35 -117 8 -6 59 50 93
153 94 22 0 47 5 55 10 21 13 -2 53 -101 170 -81 96 -89 113 -105 224 -11 73
-39 99 -109 99 -60 0 -95 -26 -118 -89 -26 -73 -18 -151 27 -254 37 -87 45
-130 23 -130 -60 0 -187 198 -264 410 -67 184 -126 267 -199 277 -22 3 -42 1
-46 -3z"/>
</g>
</svg>
